<?xml version="1.0" encoding="utf-8"?>
<svg viewBox="165.64 259.609 234.626 37.359" xmlns="http://www.w3.org/2000/svg">
  <path d="M 201.851 279.362 C 204.278 279.549 206.061 280.109 207.201 281.042 C 208.341 281.975 208.911 283.079 208.911 284.352 C 208.911 286.085 208.228 287.425 206.861 288.372 C 205.501 289.312 203.608 289.782 201.181 289.782 C 200.641 289.782 200.184 289.772 199.811 289.752 C 198.578 289.719 197.371 289.702 196.191 289.702 C 194.271 289.702 192.834 289.729 191.881 289.782 L 191.881 289.222 C 192.501 289.182 192.954 289.109 193.241 289.002 C 193.528 288.889 193.724 288.672 193.831 288.352 C 193.931 288.039 193.981 287.525 193.981 286.812 L 193.981 272.922 C 193.981 272.215 193.931 271.702 193.831 271.382 C 193.724 271.069 193.528 270.855 193.241 270.742 C 192.954 270.629 192.501 270.555 191.881 270.522 L 191.881 269.962 C 192.834 270.015 194.254 270.042 196.141 270.042 L 199.251 270.012 C 199.624 269.992 200.051 269.982 200.531 269.982 C 202.771 269.982 204.484 270.385 205.671 271.192 C 206.858 271.992 207.451 273.055 207.451 274.382 C 207.451 275.462 206.981 276.469 206.041 277.402 C 205.094 278.335 203.698 278.972 201.851 279.312 L 201.851 279.362 Z M 200.171 270.522 C 199.664 270.522 199.294 270.585 199.061 270.712 C 198.828 270.845 198.664 271.079 198.571 271.412 C 198.478 271.752 198.431 272.255 198.431 272.922 L 198.431 279.252 L 199.641 279.252 C 200.854 279.252 201.704 278.839 202.191 278.012 C 202.671 277.179 202.911 276.072 202.911 274.692 C 202.911 273.292 202.694 272.245 202.261 271.552 C 201.821 270.865 201.124 270.522 200.171 270.522 Z M 200.371 289.142 C 202.964 289.142 204.261 287.509 204.261 284.242 C 204.261 282.762 203.888 281.642 203.141 280.882 C 202.394 280.115 201.218 279.732 199.611 279.732 L 198.431 279.732 L 198.431 286.812 C 198.431 287.485 198.478 287.982 198.571 288.302 C 198.664 288.615 198.848 288.832 199.121 288.952 C 199.394 289.079 199.811 289.142 200.371 289.142 ZM 215.925 267.862 L 215.925 287.182 C 215.925 287.942 216.059 288.469 216.325 288.762 C 216.585 289.049 217.052 289.192 217.725 289.192 L 217.725 289.782 C 215.779 289.709 214.525 289.672 213.965 289.672 C 213.332 289.672 212.045 289.709 210.105 289.782 L 210.105 289.192 C 210.759 289.192 211.222 289.049 211.495 288.762 C 211.762 288.469 211.895 287.942 211.895 287.182 L 211.895 271.222 C 211.895 270.362 211.762 269.735 211.495 269.342 C 211.222 268.949 210.759 268.752 210.105 268.752 L 210.105 268.162 C 210.705 268.222 211.285 268.252 211.845 268.252 C 213.465 268.252 214.825 268.122 215.925 267.862 ZM 232.871 275.002 L 232.871 286.732 C 232.871 287.592 233.004 288.215 233.271 288.602 C 233.544 288.995 234.007 289.192 234.661 289.192 L 234.661 289.782 C 234.081 289.729 233.501 289.702 232.921 289.702 C 231.301 289.702 229.937 289.832 228.831 290.092 L 228.831 287.572 C 227.977 289.305 226.477 290.172 224.331 290.172 C 222.931 290.172 221.911 289.809 221.271 289.082 C 220.977 288.729 220.761 288.265 220.621 287.692 C 220.481 287.125 220.411 286.375 220.411 285.442 L 220.411 278.362 C 220.411 277.502 220.274 276.875 220.001 276.482 C 219.727 276.089 219.264 275.892 218.611 275.892 L 218.611 275.302 C 219.191 275.362 219.771 275.392 220.351 275.392 C 221.977 275.392 223.341 275.262 224.441 275.002 L 224.441 286.592 C 224.441 287.372 224.557 287.959 224.791 288.352 C 225.024 288.745 225.467 288.942 226.121 288.942 C 226.867 288.942 227.507 288.629 228.041 288.002 C 228.567 287.375 228.831 286.605 228.831 285.692 L 228.831 278.362 C 228.831 277.502 228.697 276.875 228.431 276.482 C 228.157 276.089 227.694 275.892 227.041 275.892 L 227.041 275.302 C 227.641 275.362 228.221 275.392 228.781 275.392 C 230.401 275.392 231.764 275.262 232.871 275.002 ZM 244.113 287.882 C 245.647 287.882 246.88 287.135 247.813 285.642 L 248.313 285.802 C 247.94 287.015 247.273 288.049 246.313 288.902 C 245.353 289.749 244.153 290.172 242.713 290.172 C 240.74 290.172 239.17 289.542 238.003 288.282 C 236.837 287.022 236.253 285.162 236.253 282.702 C 236.253 280.182 236.877 278.252 238.123 276.912 C 239.377 275.579 241.04 274.912 243.113 274.912 C 246.62 274.912 248.373 276.985 248.373 281.132 L 240.503 281.132 C 240.483 281.412 240.473 281.849 240.473 282.442 C 240.473 283.675 240.647 284.702 240.993 285.522 C 241.34 286.349 241.79 286.949 242.343 287.322 C 242.89 287.695 243.48 287.882 244.113 287.882 Z M 242.943 275.502 C 242.27 275.502 241.713 275.919 241.273 276.752 C 240.833 277.579 240.56 278.862 240.453 280.602 L 244.843 280.602 C 244.883 279.122 244.74 277.902 244.413 276.942 C 244.087 275.982 243.597 275.502 242.943 275.502 ZM 255.681 270.712 L 255.681 275.302 L 258.981 275.302 L 258.981 275.862 L 255.681 275.862 L 255.681 287.182 C 255.681 287.742 255.778 288.139 255.971 288.372 C 256.164 288.605 256.478 288.722 256.911 288.722 C 257.711 288.722 258.344 288.162 258.811 287.042 L 259.291 287.292 C 258.578 289.212 257.298 290.172 255.451 290.172 C 254.218 290.172 253.284 289.855 252.651 289.222 C 252.258 288.829 251.991 288.339 251.851 287.752 C 251.711 287.165 251.641 286.359 251.641 285.332 L 251.641 275.862 L 249.291 275.862 L 249.291 275.302 L 251.641 275.302 L 251.641 271.612 C 253.194 271.612 254.541 271.312 255.681 270.712 ZM 266.962 274.912 C 269.109 274.912 270.789 275.525 272.002 276.752 C 273.215 277.972 273.822 279.909 273.822 282.562 C 273.822 285.209 273.215 287.139 272.002 288.352 C 270.789 289.565 269.109 290.172 266.962 290.172 C 264.829 290.172 263.152 289.565 261.932 288.352 C 260.712 287.139 260.102 285.209 260.102 282.562 C 260.102 279.909 260.712 277.972 261.932 276.752 C 263.152 275.525 264.829 274.912 266.962 274.912 Z M 266.962 275.472 C 266.155 275.472 265.515 276.055 265.042 277.222 C 264.562 278.389 264.322 280.169 264.322 282.562 C 264.322 284.949 264.562 286.722 265.042 287.882 C 265.515 289.035 266.155 289.612 266.962 289.612 C 267.782 289.612 268.425 289.039 268.892 287.892 C 269.359 286.745 269.592 284.969 269.592 282.562 C 269.592 280.149 269.352 278.365 268.872 277.212 C 268.399 276.052 267.762 275.472 266.962 275.472 ZM 282.777 274.912 C 284.924 274.912 286.604 275.525 287.817 276.752 C 289.031 277.972 289.637 279.909 289.637 282.562 C 289.637 285.209 289.031 287.139 287.817 288.352 C 286.604 289.565 284.924 290.172 282.777 290.172 C 280.644 290.172 278.967 289.565 277.747 288.352 C 276.527 287.139 275.917 285.209 275.917 282.562 C 275.917 279.909 276.527 277.972 277.747 276.752 C 278.967 275.525 280.644 274.912 282.777 274.912 Z M 282.777 275.472 C 281.971 275.472 281.331 276.055 280.857 277.222 C 280.377 278.389 280.137 280.169 280.137 282.562 C 280.137 284.949 280.377 286.722 280.857 287.882 C 281.331 289.035 281.971 289.612 282.777 289.612 C 283.597 289.612 284.241 289.039 284.707 287.892 C 285.174 286.745 285.407 284.969 285.407 282.562 C 285.407 280.149 285.167 278.365 284.687 277.212 C 284.214 276.052 283.577 275.472 282.777 275.472 ZM 297.052 270.712 L 297.052 275.302 L 300.352 275.302 L 300.352 275.862 L 297.052 275.862 L 297.052 287.182 C 297.052 287.742 297.149 288.139 297.342 288.372 C 297.536 288.605 297.849 288.722 298.282 288.722 C 299.082 288.722 299.716 288.162 300.182 287.042 L 300.662 287.292 C 299.949 289.212 298.669 290.172 296.822 290.172 C 295.589 290.172 294.656 289.855 294.022 289.222 C 293.629 288.829 293.362 288.339 293.222 287.752 C 293.082 287.165 293.012 286.359 293.012 285.332 L 293.012 275.862 L 290.662 275.862 L 290.662 275.302 L 293.012 275.302 L 293.012 271.612 C 294.566 271.612 295.912 271.312 297.052 270.712 ZM 306.905 267.882 L 306.905 277.522 C 307.745 275.782 309.265 274.912 311.465 274.912 C 312.919 274.912 313.945 275.275 314.545 276.002 C 314.865 276.362 315.095 276.825 315.235 277.392 C 315.375 277.959 315.445 278.709 315.445 279.642 L 315.445 287.182 C 315.445 287.942 315.575 288.469 315.835 288.762 C 316.095 289.049 316.562 289.192 317.235 289.192 L 317.235 289.782 C 315.295 289.709 314.062 289.672 313.535 289.672 C 312.902 289.672 311.689 289.709 309.895 289.782 L 309.895 289.192 C 310.455 289.192 310.849 289.049 311.075 288.762 C 311.295 288.469 311.405 287.942 311.405 287.182 L 311.405 278.472 C 311.405 277.705 311.282 277.125 311.035 276.732 C 310.782 276.339 310.329 276.142 309.675 276.142 C 308.889 276.142 308.229 276.445 307.695 277.052 C 307.169 277.659 306.905 278.429 306.905 279.362 L 306.905 287.182 C 306.905 287.942 307.015 288.469 307.235 288.762 C 307.462 289.049 307.855 289.192 308.415 289.192 L 308.415 289.782 C 306.622 289.709 305.465 289.672 304.945 289.672 C 304.305 289.672 303.015 289.709 301.075 289.782 L 301.075 289.192 C 301.729 289.192 302.192 289.049 302.465 288.762 C 302.732 288.469 302.865 287.942 302.865 287.182 L 302.865 271.242 C 302.865 270.389 302.732 269.765 302.465 269.372 C 302.192 268.979 301.729 268.782 301.075 268.782 L 301.075 268.192 C 301.675 268.252 302.255 268.282 302.815 268.282 C 304.435 268.282 305.799 268.149 306.905 267.882 Z" transform="matrix(1, 0, 0, 1, 0, 0)" style="fill: rgb(51, 51, 51); white-space: pre;"/>
  <path d="M 327.414 269.69 C 328.534 269.69 329.484 269.85 330.264 270.17 C 331.051 270.49 331.817 270.937 332.564 271.51 C 332.771 271.683 332.947 271.77 333.094 271.77 C 333.467 271.77 333.711 271.21 333.824 270.09 L 334.464 270.09 C 334.391 271.303 334.354 273.45 334.354 276.53 L 333.714 276.53 C 333.507 275.317 333.321 274.443 333.154 273.91 C 332.987 273.377 332.707 272.867 332.314 272.38 C 331.754 271.653 331.041 271.107 330.174 270.74 C 329.301 270.38 328.361 270.2 327.354 270.2 C 326.141 270.2 325.081 270.6 324.174 271.4 C 323.274 272.207 322.571 273.35 322.064 274.83 C 321.557 276.317 321.304 278.057 321.304 280.05 C 321.304 282.09 321.577 283.837 322.124 285.29 C 322.664 286.743 323.414 287.85 324.374 288.61 C 325.334 289.363 326.421 289.74 327.634 289.74 C 328.567 289.74 329.474 289.563 330.354 289.21 C 331.227 288.857 331.917 288.323 332.424 287.61 C 332.797 287.09 333.067 286.53 333.234 285.93 C 333.401 285.337 333.561 284.423 333.714 283.19 L 334.354 283.19 C 334.354 286.403 334.391 288.643 334.464 289.91 L 333.824 289.91 C 333.771 289.31 333.691 288.887 333.584 288.64 C 333.484 288.387 333.341 288.26 333.154 288.26 C 333.001 288.26 332.804 288.333 332.564 288.48 C 331.724 289.08 330.921 289.533 330.154 289.84 C 329.387 290.147 328.464 290.3 327.384 290.3 C 325.611 290.3 324.057 289.9 322.724 289.1 C 321.391 288.293 320.354 287.13 319.614 285.61 C 318.874 284.09 318.504 282.277 318.504 280.17 C 318.504 278.117 318.884 276.297 319.644 274.71 C 320.397 273.123 321.451 271.89 322.804 271.01 C 324.157 270.13 325.694 269.69 327.414 269.69 ZM 340.742 267.96 L 340.742 287.31 C 340.742 288.07 340.902 288.597 341.222 288.89 C 341.542 289.177 342.092 289.32 342.872 289.32 L 342.872 289.91 C 341.159 289.837 340.029 289.8 339.482 289.8 C 338.942 289.8 337.815 289.837 336.102 289.91 L 336.102 289.32 C 336.882 289.32 337.432 289.177 337.752 288.89 C 338.065 288.597 338.222 288.07 338.222 287.31 L 338.222 271.32 C 338.222 270.46 338.065 269.833 337.752 269.44 C 337.432 269.047 336.882 268.85 336.102 268.85 L 336.102 268.27 C 336.675 268.323 337.252 268.35 337.832 268.35 C 339.012 268.35 339.982 268.22 340.742 267.96 ZM 347.248 290.11 C 346.074 290.11 345.204 289.813 344.638 289.22 C 344.064 288.633 343.778 287.817 343.778 286.77 C 343.778 285.93 344.008 285.24 344.468 284.7 C 344.921 284.16 345.461 283.73 346.088 283.41 C 346.714 283.097 347.541 282.763 348.568 282.41 C 349.614 282.05 350.388 281.723 350.888 281.43 C 351.394 281.13 351.648 280.727 351.648 280.22 L 351.648 278.49 C 351.648 277.403 351.418 276.66 350.958 276.26 C 350.504 275.86 349.868 275.66 349.048 275.66 C 347.741 275.66 346.814 275.997 346.268 276.67 C 346.641 276.763 346.954 276.957 347.208 277.25 C 347.461 277.55 347.588 277.923 347.588 278.37 C 347.588 278.837 347.438 279.207 347.138 279.48 C 346.838 279.753 346.454 279.89 345.988 279.89 C 345.468 279.89 345.078 279.727 344.818 279.4 C 344.558 279.073 344.428 278.677 344.428 278.21 C 344.428 277.757 344.534 277.383 344.748 277.09 C 344.961 276.79 345.281 276.49 345.708 276.19 C 346.161 275.87 346.731 275.61 347.418 275.41 C 348.111 275.203 348.868 275.1 349.688 275.1 C 351.141 275.1 352.241 275.443 352.988 276.13 C 353.454 276.563 353.768 277.083 353.928 277.69 C 354.088 278.297 354.168 279.093 354.168 280.08 L 354.168 287.87 C 354.168 288.337 354.234 288.67 354.368 288.87 C 354.494 289.077 354.718 289.18 355.038 289.18 C 355.258 289.18 355.468 289.13 355.668 289.03 C 355.861 288.923 356.071 288.777 356.298 288.59 L 356.608 289.07 C 356.121 289.443 355.704 289.71 355.358 289.87 C 355.011 290.03 354.578 290.11 354.058 290.11 C 353.158 290.11 352.531 289.883 352.178 289.43 C 351.824 288.983 351.648 288.377 351.648 287.61 C 351.088 288.543 350.444 289.193 349.718 289.56 C 348.991 289.927 348.168 290.11 347.248 290.11 Z M 348.488 288.99 C 349.714 288.99 350.768 288.28 351.648 286.86 L 351.648 281.37 C 351.481 281.63 351.248 281.843 350.948 282.01 C 350.648 282.183 350.191 282.41 349.578 282.69 C 348.864 282.983 348.291 283.267 347.858 283.54 C 347.418 283.813 347.038 284.183 346.718 284.65 C 346.404 285.117 346.248 285.713 346.248 286.44 C 346.248 287.28 346.451 287.913 346.858 288.34 C 347.271 288.773 347.814 288.99 348.488 288.99 ZM 361.647 275.1 C 362.321 275.1 362.921 275.203 363.447 275.41 C 363.967 275.61 364.387 275.85 364.707 276.13 C 364.907 276.283 365.074 276.36 365.207 276.36 C 365.541 276.36 365.747 275.95 365.827 275.13 L 366.467 275.13 C 366.394 276.043 366.357 277.63 366.357 279.89 L 365.707 279.89 C 365.507 278.657 365.111 277.637 364.517 276.83 C 363.931 276.03 363.061 275.63 361.907 275.63 C 361.234 275.63 360.681 275.82 360.247 276.2 C 359.821 276.587 359.607 277.117 359.607 277.79 C 359.607 278.443 359.831 278.987 360.277 279.42 C 360.724 279.86 361.444 280.39 362.437 281.01 C 362.604 281.103 362.854 281.26 363.187 281.48 C 364.047 282.04 364.741 282.537 365.267 282.97 C 365.787 283.397 366.211 283.89 366.537 284.45 C 366.864 285.01 367.027 285.653 367.027 286.38 C 367.027 287.613 366.564 288.577 365.637 289.27 C 364.717 289.957 363.584 290.3 362.237 290.3 C 361.397 290.3 360.661 290.17 360.027 289.91 C 359.614 289.703 359.231 289.45 358.877 289.15 C 358.804 289.077 358.721 289.04 358.627 289.04 C 358.494 289.04 358.377 289.133 358.277 289.32 C 358.177 289.507 358.097 289.77 358.037 290.11 L 357.397 290.11 C 357.471 289.043 357.507 287.177 357.507 284.51 L 358.147 284.51 C 358.354 286.263 358.727 287.573 359.267 288.44 C 359.814 289.307 360.741 289.74 362.047 289.74 C 362.701 289.74 363.277 289.527 363.777 289.1 C 364.284 288.667 364.537 287.993 364.537 287.08 C 364.537 286.353 364.291 285.737 363.797 285.23 C 363.297 284.73 362.487 284.123 361.367 283.41 C 360.454 282.837 359.751 282.363 359.257 281.99 C 358.764 281.617 358.347 281.157 358.007 280.61 C 357.674 280.07 357.507 279.437 357.507 278.71 C 357.507 277.537 357.901 276.64 358.687 276.02 C 359.467 275.407 360.454 275.1 361.647 275.1 ZM 373.36 275.1 C 374.033 275.1 374.633 275.203 375.16 275.41 C 375.68 275.61 376.1 275.85 376.42 276.13 C 376.62 276.283 376.786 276.36 376.92 276.36 C 377.253 276.36 377.46 275.95 377.54 275.13 L 378.18 275.13 C 378.106 276.043 378.07 277.63 378.07 279.89 L 377.42 279.89 C 377.22 278.657 376.823 277.637 376.23 276.83 C 375.643 276.03 374.773 275.63 373.62 275.63 C 372.946 275.63 372.393 275.82 371.96 276.2 C 371.533 276.587 371.32 277.117 371.32 277.79 C 371.32 278.443 371.543 278.987 371.99 279.42 C 372.436 279.86 373.156 280.39 374.15 281.01 C 374.316 281.103 374.566 281.26 374.9 281.48 C 375.76 282.04 376.453 282.537 376.98 282.97 C 377.5 283.397 377.923 283.89 378.25 284.45 C 378.576 285.01 378.74 285.653 378.74 286.38 C 378.74 287.613 378.276 288.577 377.35 289.27 C 376.43 289.957 375.296 290.3 373.95 290.3 C 373.11 290.3 372.373 290.17 371.74 289.91 C 371.326 289.703 370.943 289.45 370.59 289.15 C 370.516 289.077 370.433 289.04 370.34 289.04 C 370.206 289.04 370.09 289.133 369.99 289.32 C 369.89 289.507 369.81 289.77 369.75 290.11 L 369.11 290.11 C 369.183 289.043 369.22 287.177 369.22 284.51 L 369.86 284.51 C 370.066 286.263 370.44 287.573 370.98 288.44 C 371.526 289.307 372.453 289.74 373.76 289.74 C 374.413 289.74 374.99 289.527 375.49 289.1 C 375.996 288.667 376.25 287.993 376.25 287.08 C 376.25 286.353 376.003 285.737 375.51 285.23 C 375.01 284.73 374.2 284.123 373.08 283.41 C 372.166 282.837 371.463 282.363 370.97 281.99 C 370.476 281.617 370.06 281.157 369.72 280.61 C 369.386 280.07 369.22 279.437 369.22 278.71 C 369.22 277.537 369.613 276.64 370.4 276.02 C 371.18 275.407 372.166 275.1 373.36 275.1 ZM 383.252 268.49 C 383.738 268.49 384.158 268.667 384.512 269.02 C 384.872 269.373 385.052 269.793 385.052 270.28 C 385.052 270.767 384.872 271.187 384.512 271.54 C 384.158 271.893 383.738 272.07 383.252 272.07 C 382.772 272.07 382.352 271.893 381.992 271.54 C 381.638 271.187 381.462 270.767 381.462 270.28 C 381.462 269.793 381.638 269.373 381.992 269.02 C 382.352 268.667 382.772 268.49 383.252 268.49 Z M 384.712 275.18 L 384.712 287.31 C 384.712 288.07 384.872 288.597 385.192 288.89 C 385.505 289.177 386.055 289.32 386.842 289.32 L 386.842 289.91 C 385.122 289.837 383.992 289.8 383.452 289.8 C 382.912 289.8 381.782 289.837 380.062 289.91 L 380.062 289.32 C 380.848 289.32 381.398 289.177 381.712 288.89 C 382.032 288.597 382.192 288.07 382.192 287.31 L 382.192 278.54 C 382.192 277.68 382.032 277.057 381.712 276.67 C 381.398 276.277 380.848 276.08 380.062 276.08 L 380.062 275.49 C 380.662 275.543 381.242 275.57 381.802 275.57 C 382.975 275.57 383.945 275.44 384.712 275.18 ZM 394.463 275.1 C 395.717 275.1 396.8 275.397 397.713 275.99 C 398.593 276.57 399.033 277.29 399.033 278.15 C 399.033 278.637 398.893 279.02 398.613 279.3 C 398.333 279.58 397.977 279.72 397.543 279.72 C 397.117 279.72 396.753 279.593 396.453 279.34 C 396.153 279.087 396.003 278.747 396.003 278.32 C 396.003 277.927 396.117 277.593 396.343 277.32 C 396.563 277.053 396.843 276.873 397.183 276.78 C 396.997 276.44 396.663 276.16 396.183 275.94 C 395.71 275.713 395.203 275.6 394.663 275.6 C 393.97 275.6 393.327 275.82 392.733 276.26 C 392.133 276.7 391.637 277.427 391.243 278.44 C 390.85 279.46 390.653 280.8 390.653 282.46 C 390.653 284.773 391.027 286.46 391.773 287.52 C 392.52 288.573 393.493 289.1 394.693 289.1 C 395.493 289.1 396.253 288.867 396.973 288.4 C 397.693 287.933 398.287 287.203 398.753 286.21 L 399.283 286.41 C 398.963 287.477 398.37 288.39 397.503 289.15 C 396.637 289.917 395.513 290.3 394.133 290.3 C 392.973 290.3 391.923 290.003 390.983 289.41 C 390.037 288.81 389.293 287.947 388.753 286.82 C 388.213 285.687 387.943 284.373 387.943 282.88 C 387.943 281.367 388.217 280.023 388.763 278.85 C 389.317 277.677 390.087 276.757 391.073 276.09 C 392.067 275.43 393.197 275.1 394.463 275.1 Z" transform="matrix(1, 0, 0, 1, 0, 0)" style="fill: rgb(51, 51, 51); white-space: pre;"/>
  <g transform="matrix(1.016209, 0, 0, 1.016209, 0.236578, -5.086121)" style="">
    <path fill="#61DAFB" d="M 185.382 280.059 C 185.382 278.562 183.505 277.142 180.629 276.262 C 181.291 273.328 180.997 270.997 179.698 270.25 C 179.398 270.075 179.047 269.991 178.666 269.991 L 178.666 271.019 C 178.877 271.019 179.047 271.062 179.19 271.14 C 179.817 271.499 180.09 272.869 179.876 274.63 C 179.827 275.062 179.744 275.52 179.642 275.985 C 178.739 275.763 177.752 275.593 176.715 275.482 C 176.091 274.63 175.447 273.854 174.796 273.177 C 176.301 271.781 177.71 271.015 178.67 271.015 L 178.67 269.987 C 178.67 269.987 178.67 269.987 178.67 269.987 C 177.402 269.987 175.742 270.89 174.064 272.459 C 172.386 270.901 170.726 270.005 169.458 270.005 L 169.458 271.035 C 170.413 271.035 171.827 271.794 173.332 273.181 C 172.685 273.86 172.04 274.63 171.426 275.482 C 170.385 275.593 169.398 275.763 168.495 275.989 C 168.389 275.529 168.311 275.081 168.255 274.652 C 168.038 272.891 168.306 271.523 168.928 271.157 C 169.066 271.075 169.247 271.039 169.458 271.039 L 169.458 270.01 C 169.458 270.01 169.458 270.01 169.458 270.01 C 169.071 270.01 168.721 270.093 168.417 270.268 C 167.122 271.015 166.83 273.344 167.499 276.266 C 164.632 277.151 162.765 278.566 162.765 280.059 C 162.765 281.558 164.641 282.978 167.517 283.858 C 166.854 286.791 167.149 289.123 168.449 289.87 C 168.749 290.046 169.099 290.128 169.487 290.128 C 170.753 290.128 172.414 289.225 174.093 287.658 C 175.77 289.216 177.429 290.11 178.697 290.11 C 179.084 290.11 179.435 290.027 179.738 289.852 C 181.035 289.104 181.325 286.778 180.656 283.854 C 183.514 282.973 185.382 281.554 185.382 280.059 Z M 179.379 276.985 C 179.209 277.579 178.996 278.194 178.756 278.806 C 178.568 278.437 178.37 278.069 178.153 277.7 C 177.941 277.331 177.714 276.971 177.49 276.621 C 178.144 276.719 178.775 276.837 179.379 276.985 Z M 177.268 281.895 C 176.909 282.518 176.54 283.107 176.156 283.656 C 175.47 283.716 174.774 283.749 174.073 283.749 C 173.377 283.749 172.681 283.716 171.998 283.66 C 171.616 283.112 171.243 282.527 170.883 281.909 C 170.533 281.305 170.214 280.692 169.924 280.073 C 170.21 279.456 170.533 278.838 170.878 278.234 C 171.238 277.612 171.607 277.021 171.99 276.473 C 172.677 276.413 173.373 276.381 174.073 276.381 C 174.77 276.381 175.466 276.413 176.147 276.469 C 176.531 277.018 176.903 277.603 177.264 278.221 C 177.613 278.824 177.931 279.438 178.222 280.056 C 177.931 280.673 177.613 281.291 177.268 281.895 Z M 178.756 281.295 C 179.006 281.914 179.218 282.531 179.392 283.131 C 178.789 283.279 178.153 283.402 177.493 283.499 C 177.72 283.144 177.946 282.779 178.157 282.406 C 178.37 282.037 178.568 281.664 178.756 281.295 Z M 174.083 286.214 C 173.653 285.772 173.225 285.277 172.801 284.738 C 173.216 284.758 173.64 284.771 174.068 284.771 C 174.502 284.771 174.931 284.762 175.349 284.738 C 174.934 285.277 174.507 285.772 174.083 286.214 Z M 170.653 283.499 C 169.997 283.402 169.366 283.282 168.762 283.135 C 168.933 282.54 169.146 281.927 169.385 281.315 C 169.574 281.682 169.773 282.052 169.989 282.419 C 170.206 282.79 170.427 283.149 170.653 283.499 Z M 174.059 273.906 C 174.488 274.349 174.917 274.842 175.341 275.381 C 174.925 275.362 174.502 275.348 174.073 275.348 C 173.64 275.348 173.211 275.359 172.792 275.381 C 173.207 274.842 173.634 274.349 174.059 273.906 Z M 170.648 276.621 C 170.421 276.975 170.196 277.34 169.984 277.713 C 169.773 278.082 169.574 278.45 169.385 278.821 C 169.135 278.203 168.923 277.583 168.749 276.985 C 169.353 276.843 169.989 276.719 170.648 276.621 Z M 166.476 282.393 C 164.844 281.696 163.788 280.783 163.788 280.059 C 163.788 279.336 164.844 278.42 166.476 277.728 C 166.873 277.557 167.305 277.405 167.753 277.261 C 168.016 278.165 168.361 279.106 168.79 280.069 C 168.366 281.028 168.025 281.964 167.766 282.863 C 167.31 282.72 166.876 282.563 166.476 282.393 Z M 168.956 288.98 C 168.328 288.621 168.057 287.252 168.27 285.491 C 168.32 285.057 168.403 284.6 168.504 284.134 C 169.408 284.357 170.395 284.527 171.432 284.639 C 172.054 285.491 172.699 286.265 173.35 286.942 C 171.847 288.339 170.436 289.104 169.476 289.104 C 169.27 289.1 169.094 289.058 168.956 288.98 Z M 179.891 285.467 C 180.108 287.228 179.84 288.598 179.218 288.962 C 179.08 289.045 178.9 289.082 178.689 289.082 C 177.734 289.082 176.318 288.321 174.816 286.933 C 175.46 286.256 176.107 285.486 176.719 284.633 C 177.761 284.522 178.748 284.353 179.651 284.126 C 179.757 284.591 179.84 285.039 179.891 285.467 Z M 181.666 282.393 C 181.269 282.563 180.836 282.715 180.389 282.859 C 180.126 281.955 179.78 281.015 179.352 280.05 C 179.776 279.092 180.116 278.157 180.375 277.258 C 180.832 277.4 181.265 277.557 181.67 277.728 C 183.302 278.423 184.358 279.336 184.358 280.059 C 184.353 280.783 183.298 281.701 181.666 282.393 Z" style=""/>
    <circle fill="#61DAFB" cx="174.068" cy="280.06" r="2.106" style=""/>
  </g>
</svg>