<svg id="verticals" xmlns="http://www.w3.org/2000/svg" viewBox="0 0 616.36 596.44"><defs><style>.cls-1{fill:#008ecf;}.cls-2{fill:#09263c;}</style></defs><path class="cls-1" d="M308.21,0C138,0,0,138,0,308.21,0,440,82.7,552.35,199,596.44l26.05-72.55c-86.56-33.4-148-117.34-148-215.68,0-127.67,103.5-231.16,231.16-231.16S539.36,180.54,539.36,308.21c0,98.34-61.43,182.28-148,215.68l26,72.55c116.3-44.09,199-156.48,199-288.23C616.42,138,478.43,0,308.21,0Z"/><path class="cls-2" d="M251.09,451.33l26.08-72.63a77,77,0,1,1,62.08,0l26.07,72.63a154.11,154.11,0,1,0-114.23,0Z"/></svg>